<?xml version="1.0" encoding="utf-8"?>
<!-- Generator: Adobe Illustrator 25.4.1, SVG Export Plug-In . SVG Version: 6.00 Build 0)  -->
<svg version="1.1" id="Capa_1" xmlns="http://www.w3.org/2000/svg" xmlns:xlink="http://www.w3.org/1999/xlink" x="0px" y="0px"
	 viewBox="0 0 595.3 246.2" style="enable-background:new 0 0 595.3 246.2;" xml:space="preserve">
<style type="text/css">
	.st0{display:none;}
	.st1{display:inline;}
</style>
<g id="FIRMA_00000132775383366565085340000013974964526937484171_">
	<g id="FIRMA_00000001654128354720097120000015823362929987953553_">
		<g id="FIRMA_00000167384156610638174370000003342450325238760863_" class="st0">
			<g class="st1">
				<path d="M28.2,208.2h-6.5v-6h7.5l1.3-6.6h-8.8v-6.1h9.9l2.4-11.8h6.2l-2.4,11.8h7.3l2.3-11.8h6.2l-2.2,11.8h6.6v6.1h-7.7
					l-1.3,6.6h9v6H48l-2.1,11.1h-6.3l2.1-11.1h-7.2l-2.1,11.1H26L28.2,208.2z M43.2,202.6l1.5-7.4h-8.2l-1.5,7.4H43.2z"/>
				<path d="M105.1,232.8c-3.2,0-4.9-1.4-5.2-4.1c-0.3-2.8-0.5-5-0.5-6.7c0.1-5.6,1-12.8,2.8-21.6c0.3-2.9,1.5-7.7,3.6-14.4
					c1.5-4.9,2.2-7.7,2.2-8.3c-0.2,0-1.2,2.1-3,6.2c-1.5,3.5-3.4,7.6-5.6,12.2c-5.4,11.5-9.9,18.7-13.6,21.8c-1,0.9-1.9,1.3-2.8,1.3
					c-0.9,0-1.7-0.6-2.5-1.7c-1.8-3.4-2.7-7-2.8-11c-0.1-4-0.2-7.7-0.2-11.3c0-4.5,0.1-8.9,0.4-13.2v-2.6c-0.7,0-2.7,7.5-5.9,22.6
					c-2.4,10.8-3.6,17.8-3.7,20.8c-0.1,2.1-1.1,3.2-3,3.2c-1.2,0-2.4-0.5-3.4-1.5c-1.1-1-1.6-2.4-1.6-4.2c0-0.9,0.6-4.6,1.7-11.2
					c2.3-13.6,5.2-25.8,8.8-36.6c1.9-6,4.3-8.9,7-8.9c1.8,0,3.6,0.6,5.3,1.8c1.7,1.2,2.6,4.4,2.6,9.7l-0.4,26.9
					c0,1.1,0.2,1.7,0.6,1.7c1,0,4.2-5.2,9.6-15.7c2.8-5.3,5.6-10.7,8.7-16.1c6.5-11.5,11.5-17.2,14.8-17.2c0.4,0,0.8,0.1,1.2,0.3
					c1.7,0.9,2.5,2.1,2.5,3.7c0,0.6-0.1,1.3-0.4,2.1c-4.8,13.4-8.6,25-11.3,34.8c-2.7,10.1-4,18.3-4,24.3c0,4.2,0.8,7.3,2.5,9.1
					c0.3,0.3,0.5,0.7,0.5,1c0,0.4-0.3,0.9-0.9,1.4C108.3,232.4,106.9,232.8,105.1,232.8z"/>
				<path d="M142.6,219.7c-0.5,0-0.9-0.1-1.2-0.2c-4.5-1.4-6.8-4.8-6.8-10.1c0-1.9-0.2-2.8-0.6-2.8c-0.1,0-1.5,1.7-4.2,5.2
					c-1.5,2-3,3.8-4.5,5.5c-1.4,1.6-2.9,2.5-4.4,2.5c-1.1,0-2.3-0.3-3.4-0.9c-2.3-1.3-3.5-3.3-3.5-6c0-0.7,0.1-1.4,0.3-2.1
					c1.4-7.2,4.9-14.3,10.3-21.5c2.2-2.9,4.6-4.4,7-4.4c1.5,0,2.8,0.5,4,1.4c1.2,0.9,1.8,1.8,1.8,2.4s-0.1,1.2-0.3,1.6
					c-0.6,1.2-1.3,1.8-2.1,1.8c-0.8,0-1.4-0.1-1.9-0.4c-0.5-0.3-0.9-0.5-1.2-0.5c-0.3,0-0.8,0.4-1.4,1.2c-2.5,3.3-4.9,8.3-7.4,15
					c-0.3,0.9-0.5,1.5-0.5,1.8c0,0.3,0.1,0.4,0.3,0.4c0.9,0,3.3-2.5,7.4-7.7c5.2-6.5,8.3-9.9,9.5-10.2c0.6-0.2,1.2-0.3,1.6-0.3
					c0.5,0,0.8,0.1,1.1,0.2c1.6,0.9,2.4,2.5,2.4,4.9c0,1-0.1,2.1-0.4,3.2c-1,4.2-1.5,7.9-1.5,11c0,2.4,0.5,4.6,1.5,6.8
					c0.2,0.5,0.3,0.8,0.3,1.1C144.7,219.3,144,219.7,142.6,219.7z"/>
				<path d="M152.6,221.9c-1.7,0-3.1-0.5-4.3-1.6c-0.6-0.6-0.9-1.5-0.9-2.6c1.3-11.7,2.6-21.3,3.8-29c0.3-1.6,1.1-2.4,2.6-2.4
					c3.5,0,5.2,1.6,5.2,4.7c0,0.6-0.1,1.3-0.4,2.3c-0.3,1.2-0.5,2.3-0.5,3.3c0,0.9,0.1,1.3,0.3,1.3c0.2,0,0.4-0.2,0.6-0.7
					c1.3-2.8,3.6-4.9,7-6.4c1.1-0.5,2.2-0.8,3.3-0.8c1,0,1.8,0.5,2.4,1.5c0.3,0.5,0.5,1,0.5,1.4c0,0.7-0.7,1.3-2,2
					c-0.3,0.2-0.6,0.3-0.9,0.5c-6.8,5.2-11.3,12.7-13.4,22.3C155.3,220.5,154.2,221.9,152.6,221.9z"/>
				<path d="M176.4,222.5c-3.7,0-6.8-1.8-9.2-5.3c-1-1.5-1.5-3.4-1.5-5.8c0-4.5,1.5-10.1,4.6-16.9c1.8-4.2,3.6-7.3,5.3-9.5
					c1.3-1.6,3-2.4,5.2-2.4c4.1,0,6.2,1.3,6.2,3.9c0,0.5-0.2,0.9-0.5,1.1c-0.3,0.2-1.2,0.6-2.6,1c-1.9,0.6-3.5,2.2-4.8,4.8
					c-3.1,6.3-4.6,12.9-4.6,19.8c0,1.8,0.6,3.1,1.9,3.9c0.4,0.2,0.8,0.3,1.1,0.3c1.3,0,3.9-2.2,8-6.7c0.5-0.6,1.2-0.9,2-0.9h1.1
					c0.6,0,0.9,0.3,0.9,1c-0.3,2.7-1.3,5.1-2.8,7.1C184.2,221.1,180.8,222.5,176.4,222.5z"/>
				<path d="M220.1,225.3h-0.6c-5.4,0-8.1-5.8-8.1-17.4v-11.7c0-0.9-0.2-1.3-0.5-1.3c-0.3,0-0.7,0.4-1.3,1.3
					c-4.8,7.6-8.1,15.7-10.1,24.5c-0.5,2.2-1.6,3.4-3.5,3.5c-3.8,0-5.7-1.5-5.7-4.4l0.1-1.2c1.2-7.1,2.3-14.2,3.4-21.4
					c1.1-7.1,1.7-10.8,1.7-11.1c1-8.4,2.2-16.8,3.6-25.1c0.5-3.2,1.8-4.8,3.8-4.8c3.3,0.1,5,1.5,5,4.3c0,0.7-0.1,1.5-0.3,2.1
					c-0.6,1.8-1.5,6.9-2.8,15.3c-1,6.1-1.5,10.3-1.5,12.5c0,0.9,0.1,1.3,0.2,1.5c0.2,0,0.9-0.7,2.1-2.2c2.6-3.3,5.3-5,8.1-5
					c4.6,0,7,2.2,7,6.6c0,0.7-0.1,1.4-0.2,2.2c-0.5,3.8-0.8,7.5-0.8,11.2c0,7.2,0.8,12.6,2.4,16.2c0.1,0.3,0.3,0.5,0.4,0.8
					c0.3,0.5,0.5,1,0.5,1.5c0,0.3-0.1,0.6-0.3,0.9C222.1,224.9,221.3,225.2,220.1,225.3z"/>
				<path d="M236.5,222.4c-8.7,0-13.1-4-13.1-12.1c0-0.7,0.2-2.4,0.5-5.1c0.3-2.6,1.5-6.1,3.7-10.3c3.8-7.6,7.9-11.3,12.3-11.3
					c3.6,0,6.2,1.8,8.1,5.3c0.6,1.1,0.9,2.2,0.9,3.4c0,1.5-0.4,3-1.3,4.6c-4.9,7.3-9.6,11.9-13.9,14c-1.5,0.7-2.3,1.5-2.3,2.3
					c0,0.3,0.1,0.7,0.2,1c0.5,1.8,1.5,2.8,3.1,2.8c2.3,0,5.4-1.4,9.2-4.2c2.5-1.8,4.3-3.2,5.4-4.2c1.4-1.4,2.5-2.1,3.3-2.1
					c0.4,0,0.8,0.1,1.2,0.4c0.6,0.6,0.9,1.3,0.9,2.1c0,0.9-0.6,2.3-1.8,4c-1.2,1.8-3.1,3.7-5.8,5.7c-2.7,2-5.1,3.1-7.2,3.4
					C238.7,222.3,237.6,222.4,236.5,222.4z M233.3,204.3c1.5-1,2.9-2.8,4.3-5.4c2.1-3.8,3.1-6.1,3.1-7c0-0.5-0.3-0.7-0.9-0.7
					c-0.4,0-0.7,0.1-0.9,0.4c-4.3,7.3-6.4,11.3-6.4,11.9C232.4,203.9,232.7,204.2,233.3,204.3z"/>
				<path d="M263.4,232.9c-0.5,0-0.9-0.1-1.4-0.3c-2.5-1.1-4.1-2.7-4.9-4.8c-1.4-3.7-2.1-9.4-2.1-17.3c0-9,1.2-20,3.6-33
					c0.1-0.8,0.2-1.4,0.2-1.8c0-0.5-0.2-0.8-0.7-0.8c-0.9,0-2,0.3-3.2,0.8c-1.5,0.6-3.6,0.9-6.3,0.9c-1.1,0-2.3-1-3.5-3.1
					c-0.5-0.9-0.8-1.7-0.8-2.4c0-1.4,1.1-2.3,3.4-2.6l11.1-1.5c1.3-0.2,2.2-1.1,2.7-2.7l5.8-20.5c0.6-2.2,1.7-3.4,3.4-3.4
					c0.5,0,1.1,0.1,1.8,0.3c2.2,0.9,3.4,2.1,3.4,3.8c0,0.6-0.1,1.3-0.4,2.1c-1.1,2.9-2.5,7.1-4.2,12.5c-1,3.2-1.5,5-1.5,5.4
					c0.1,1,0.9,1.5,2.4,1.5l4.7-0.1c1.1,0,2.3,0.1,3.8,0.3c1.4,0.2,3.1,0.9,5,2.1s2.9,2.5,2.9,3.9c0,0.6-0.1,1.2-0.4,1.8
					c-0.5,0.9-1,1.3-1.7,1.3c-0.7,0-1.5-0.2-2.3-0.7c-1.5-0.7-3.9-1.1-7.3-1.1c-5.8,0-8.9,0.5-9.3,1.4c-0.2,0.5-0.4,1-0.6,1.7
					c-2.6,11.9-4,24-4,36.4c0,4.5,0.3,8.1,0.8,11c0.3,1.9,1.1,3.8,2.4,5.6c0.3,0.4,0.4,0.7,0.4,1c0,0.3-0.1,0.7-0.4,1.1
					C265.6,232.5,264.7,232.9,263.4,232.9z"/>
				<path d="M280.5,232.9c-0.5,0-0.9-0.1-1.4-0.3c-2.5-1.1-4.1-2.7-4.9-4.8c-1.4-3.7-2.1-9.4-2.1-17.3c0-9,1.2-20,3.6-33
					c0.1-0.8,0.2-1.4,0.2-1.8c0-0.5-0.2-0.8-0.7-0.8c-0.9,0-2,0.3-3.2,0.8c-1.5,0.6-3.6,0.9-6.3,0.9c-1.1,0-2.3-1-3.5-3.1
					c-0.5-0.9-0.8-1.7-0.8-2.4c0-1.4,1.1-2.3,3.4-2.6l11.1-1.5c1.3-0.2,2.2-1.1,2.7-2.7l5.8-20.5c0.6-2.2,1.7-3.4,3.4-3.4
					c0.5,0,1.1,0.1,1.8,0.3c2.2,0.9,3.4,2.1,3.4,3.8c0,0.6-0.1,1.3-0.4,2.1c-1.1,2.9-2.5,7.1-4.2,12.5c-1,3.2-1.5,5-1.5,5.4
					c0.1,1,0.9,1.5,2.4,1.5l4.7-0.1c1.1,0,2.3,0.1,3.8,0.3c1.4,0.2,3.1,0.9,5,2.1c1.9,1.2,2.9,2.5,2.9,3.9c0,0.6-0.1,1.2-0.4,1.8
					c-0.5,0.9-1,1.3-1.7,1.3s-1.5-0.2-2.3-0.7c-1.5-0.7-3.9-1.1-7.3-1.1c-5.8,0-8.9,0.5-9.3,1.4c-0.2,0.5-0.4,1-0.6,1.7
					c-2.6,11.9-4,24-4,36.4c0,4.5,0.3,8.1,0.8,11c0.3,1.9,1.1,3.8,2.4,5.6c0.3,0.4,0.4,0.7,0.4,1c0,0.3-0.1,0.7-0.4,1.1
					C282.6,232.5,281.7,232.9,280.5,232.9z"/>
				<path d="M290.9,224.2h-0.3c-2.9,0-4.5-2-4.7-5.9c-0.1-1.9-0.2-3.8-0.2-5.7c0-6.9,0.7-13.4,2.1-19.3c0.4-1.7,1.5-2.5,3.3-2.5
					c3.1,0,4.6,1.2,4.6,3.7c0,0.7-0.1,1.3-0.2,1.9c-1.4,7.3-2.3,14.7-2.7,22.2c0,0.6,0.1,1.2,0.2,1.7c0.1,0.5,0.2,1.1,0.2,1.6
					c0,0.5,0,0.9-0.1,1.4C293,223.8,292.3,224.1,290.9,224.2z M293.6,189.5l-1.2-0.1c-1.6-0.3-2.5-1.4-2.6-3.2v-1.7
					c0-2.1,0.9-5.4,2.8-10l0.4-1.2c0.5-1.1,1.3-1.7,2.6-1.7c0.6,0,1.1,0.1,1.7,0.3c1.9,0.9,3,1.9,3,3.1c0,1.3-1.5,5.5-4.4,12.7
					C295.4,189,294.6,189.5,293.6,189.5z"/>
				<path d="M326.5,204.1h-10.9v15.1h-6.6v-41.6h19c11.3,0,15.1,4.9,15.1,13c0,6.3-2.5,11.2-9.6,12.9l9,15.7h-7.3L326.5,204.1z
					 M327.7,197.9c5.4,0,8.4-1.5,8.4-7c0-5.6-2.9-7.1-8.5-7.1h-12.1v14H327.7z"/>
				<path d="M349.3,205.4v-17.5h6.5v17.7c0,4.7,0.1,8.3,7.7,8.3c7.6,0,7.6-3.6,7.6-8.4v-17.6h6.4v17.4c0,9.8-2,14.6-14,14.6
					C351.4,219.8,349.3,215.1,349.3,205.4z"/>
				<path d="M385.4,210.6v-34.9h6.5v34.1c0,2.7,0.4,3.6,3.4,3.6c0.1,0,1,0,1.2,0v5.7c-0.6,0.1-2,0.1-3.5,0.1
					C387.6,219.3,385.4,217.1,385.4,210.6z"/>
				<path d="M399.8,203.5c0-8.9,2.8-16.4,15.6-16.4c13.2,0,13.7,9.2,13.5,19.1h-22.7c0.4,4.9,2.4,8,9.4,8c5,0,7.5-1.3,9.9-3l3.5,4.5
					c-3.6,2.7-7.3,4.1-13.4,4.1C402.4,219.9,399.8,212.5,399.8,203.5z M406.2,200.6h16.6c-0.3-4.5-0.7-7.7-7.5-7.7
					C408.8,192.9,406.7,195.9,406.2,200.6z"/>
				<path d="M432.4,216l3.4-5.1c3.5,2.2,7.6,3.2,11.1,3.2c5,0,7-0.7,7-3.9c0-2.6-1.7-3.1-6.9-3.9c-7.5-1.2-12.7-2.4-12.7-9.9
					c0-5.9,3.4-9.3,12.7-9.3c4.9,0,9.3,1,12.3,2.8l-3.1,5.4c-2.3-1.2-5.6-2.1-9.1-2.1c-5.2,0-6.5,1.2-6.5,3.3c0,2.5,1.7,3.1,6.5,3.9
					c7.8,1.3,13.1,2.2,13.1,9.6c0,7.2-3.9,9.9-13.7,9.9C441.6,219.8,436.7,218.9,432.4,216z"/>
				<path d="M463.6,194.7c0-8.9,5-15.5,15-15.5c10.1,0,15.1,6.6,15.1,15.5c0,8.9-5,15.5-15.1,15.5
					C468.6,210.2,463.6,203.6,463.6,194.7z M491.7,194.7c0-7.8-3.9-13.6-13.1-13.6c-9.2,0-13.1,5.8-13.1,13.6
					c0,7.8,3.9,13.6,13.1,13.6C487.8,208.3,491.7,202.5,491.7,194.7z M479.5,197.1h-5.2v7.2h-3v-19.2h8.7c5.5,0,6.9,2.2,6.9,5.9
					c0,3-1,5.1-4.4,5.8l4.3,7.5h-3.2L479.5,197.1z M480,194.4c2.7,0,3.9-0.7,3.9-3.2c0-2.5-1.1-3.2-3.9-3.2h-5.6v6.5H480z"/>
			</g>
		</g>
	</g>
	<g id="FIRMA_00000165223871533897168840000013619656533498898318_">
		<g id="FIRMA_00000145766927343460078620000000711912794953537673_">
			<g>
				<path d="M29.7,138.3h-7.5v-7h8.7l1.5-7.7H22.2v-7h11.5l2.7-13.8h7.2l-2.7,13.8h8.5l2.7-13.8h7.2l-2.6,13.8h7.7v7h-9l-1.5,7.7
					h10.5v7H52.6l-2.5,12.8h-7.3l2.5-12.8h-8.4l-2.5,12.8h-7.3L29.7,138.3z M47.1,131.7l1.7-8.5h-9.5l-1.7,8.5H47.1z"/>
				<path d="M119,166.8c-3.7,0-5.7-1.6-6-4.8c-0.4-3.2-0.5-5.8-0.5-7.8c0.1-6.5,1.2-14.8,3.3-25.1c0.3-3.3,1.7-8.9,4.2-16.7
					c1.7-5.7,2.6-9,2.6-9.7c-0.3,0-1.4,2.4-3.5,7.2c-1.8,4.1-4,8.8-6.5,14.2c-6.3,13.3-11.5,21.8-15.8,25.4c-1.1,1-2.2,1.5-3.2,1.5
					c-1.1,0-2-0.7-2.9-2c-2.1-3.9-3.2-8.2-3.3-12.8c-0.1-4.6-0.2-9-0.2-13.1c0-5.3,0.2-10.3,0.5-15.3v-3c-0.8,0-3.1,8.8-6.9,26.3
					c-2.7,12.6-4.2,20.6-4.3,24.2c-0.1,2.5-1.3,3.7-3.5,3.7c-1.4,0-2.7-0.6-4-1.7c-1.3-1.1-1.9-2.8-1.9-4.9c0-1,0.7-5.3,2-13
					c2.7-15.8,6.1-30,10.2-42.5c2.3-6.9,5-10.4,8.1-10.4c2.1,0,4.2,0.7,6.2,2.1c2,1.4,3,5.2,3,11.3L96,131.2c0,1.3,0.2,2,0.7,2
					c1.2,0,4.9-6.1,11.2-18.3c3.2-6.2,6.6-12.4,10.1-18.7c7.6-13.3,13.3-20,17.2-20c0.5,0,0.9,0.1,1.4,0.3c1.9,1,2.9,2.4,2.9,4.3
					c0,0.7-0.2,1.6-0.5,2.5c-5.6,15.6-10,29.1-13.1,40.4c-3.1,11.8-4.7,21.2-4.7,28.3c0,4.9,1,8.5,2.9,10.6c0.4,0.4,0.6,0.8,0.6,1.2
					c0,0.5-0.4,1-1.1,1.6C122.6,166.4,121.1,166.8,119,166.8z"/>
				<path d="M162.5,151.7c-0.5,0-1-0.1-1.4-0.2c-5.3-1.7-7.9-5.6-7.9-11.8c0-2.2-0.2-3.3-0.7-3.3c-0.1,0-1.7,2-4.9,6.1
					c-1.8,2.3-3.5,4.4-5.2,6.3c-1.7,1.9-3.4,2.8-5.1,2.8c-1.3,0-2.6-0.4-3.9-1.1c-2.7-1.5-4.1-3.9-4.1-7c0-0.8,0.1-1.6,0.3-2.5
					c1.7-8.3,5.7-16.6,12-25c2.6-3.4,5.3-5.1,8.1-5.1c1.7,0,3.3,0.5,4.7,1.6c1.4,1.1,2.1,2,2.1,2.8c0,0.8-0.1,1.4-0.4,1.9
					c-0.7,1.4-1.5,2.1-2.4,2.1c-0.9,0-1.7-0.2-2.2-0.5c-0.5-0.3-1-0.5-1.4-0.6c-0.4,0-0.9,0.5-1.6,1.4c-2.9,3.9-5.7,9.7-8.6,17.4
					c-0.4,1-0.6,1.7-0.6,2.1c0,0.3,0.1,0.5,0.3,0.5c1,0,3.9-3,8.6-8.9c6-7.5,9.7-11.5,11-11.9c0.7-0.2,1.4-0.3,1.9-0.3
					c0.5,0,1,0.1,1.3,0.2c1.9,1,2.8,2.9,2.8,5.7c0,1.2-0.2,2.4-0.5,3.7c-1.2,4.9-1.8,9.1-1.8,12.8c0,2.7,0.6,5.4,1.7,7.9
					c0.3,0.5,0.4,1,0.4,1.3C165,151.2,164.2,151.7,162.5,151.7z"/>
				<path d="M174.1,154.2c-1.9,0-3.6-0.6-5-1.9c-0.7-0.7-1.1-1.7-1.1-3c1.5-13.6,3-24.8,4.4-33.6c0.3-1.9,1.3-2.8,3-2.8
					c4.1,0,6.1,1.8,6.1,5.5c0,0.7-0.2,1.6-0.5,2.7c-0.4,1.4-0.6,2.7-0.6,3.8c0,1,0.1,1.5,0.4,1.5c0.2,0,0.4-0.3,0.7-0.8
					c1.5-3.2,4.2-5.7,8.2-7.4c1.3-0.6,2.5-0.9,3.8-0.9c1.1,0,2.1,0.6,2.8,1.8c0.4,0.6,0.6,1.1,0.6,1.6c0,0.8-0.8,1.6-2.3,2.3
					c-0.4,0.2-0.7,0.4-1,0.6c-7.9,6.1-13.1,14.7-15.6,26C177.2,152.6,176,154.2,174.1,154.2z"/>
				<path d="M201.7,155c-4.3,0-7.9-2.1-10.7-6.2c-1.2-1.7-1.8-4-1.8-6.7c0-5.2,1.8-11.7,5.3-19.7c2.1-4.9,4.2-8.5,6.2-11
					c1.5-1.9,3.5-2.8,6-2.8c4.8,0,7.2,1.5,7.2,4.5c0,0.6-0.2,1-0.5,1.3c-0.4,0.3-1.4,0.7-3,1.2c-2.2,0.7-4.1,2.5-5.6,5.6
					c-3.6,7.3-5.4,15-5.4,23c0,2.1,0.7,3.6,2.2,4.5c0.5,0.3,0.9,0.4,1.3,0.4c1.5,0,4.6-2.6,9.3-7.8c0.6-0.7,1.4-1,2.3-1h1.3
					c0.7,0,1.1,0.4,1.1,1.2c-0.4,3.1-1.5,5.9-3.3,8.3C210.9,153.2,206.9,155,201.7,155z"/>
				<path d="M252.6,158.1h-0.7c-6.3,0-9.4-6.7-9.4-20.2v-13.6c0-1-0.2-1.5-0.6-1.5c-0.3,0-0.8,0.5-1.5,1.5
					c-5.5,8.8-9.4,18.3-11.7,28.5c-0.5,2.6-1.9,4-4.1,4.1c-4.4,0-6.6-1.7-6.6-5.1l0.1-1.4c1.4-8.3,2.7-16.5,4-24.8
					c1.3-8.3,1.9-12.6,2-12.9c1.1-9.8,2.5-19.5,4.2-29.2c0.6-3.7,2.1-5.6,4.4-5.6c3.9,0.1,5.8,1.7,5.8,5c0,0.9-0.1,1.7-0.3,2.5
					c-0.7,2.1-1.8,8.1-3.3,17.8c-1.1,7.1-1.7,12-1.7,14.6c0,1,0.1,1.6,0.2,1.7c0.2,0,1-0.9,2.4-2.6c3-3.9,6.1-5.8,9.4-5.8
					c5.4,0,8.1,2.6,8.1,7.7c0,0.8-0.1,1.7-0.2,2.6c-0.6,4.4-0.9,8.7-0.9,13c0,8.4,0.9,14.7,2.8,18.9c0.1,0.3,0.3,0.6,0.5,0.9
					c0.3,0.6,0.5,1.2,0.6,1.8c0,0.4-0.1,0.7-0.4,1C254.9,157.7,253.9,158.1,252.6,158.1z"/>
				<path d="M271.6,154.8c-10.1,0-15.2-4.7-15.2-14.1c0-0.9,0.2-2.8,0.5-5.9c0.4-3.1,1.8-7.1,4.2-12c4.5-8.8,9.2-13.2,14.3-13.2
					c4.1,0,7.3,2.1,9.4,6.2c0.7,1.3,1,2.6,1,4c0,1.7-0.5,3.5-1.5,5.4c-5.7,8.5-11.1,13.9-16.2,16.3c-1.8,0.9-2.7,1.8-2.7,2.7
					c0,0.4,0.1,0.8,0.2,1.2c0.6,2.1,1.8,3.2,3.6,3.2c2.7,0,6.2-1.6,10.7-4.9c2.9-2.1,5-3.8,6.3-4.9c1.6-1.6,2.9-2.4,3.8-2.4
					c0.5,0,0.9,0.2,1.4,0.5c0.7,0.7,1.1,1.5,1.1,2.5c0,1.1-0.7,2.6-2,4.7c-1.4,2.1-3.6,4.3-6.7,6.6c-3.1,2.3-5.9,3.6-8.3,3.9
					C274.1,154.7,272.8,154.8,271.6,154.8z M267.8,133.8c1.7-1.2,3.4-3.3,5-6.3c2.4-4.4,3.6-7.1,3.6-8.2c0-0.5-0.3-0.8-1-0.8
					c-0.5,0-0.8,0.2-1.1,0.5c-5,8.5-7.5,13.1-7.5,13.8C266.8,133.3,267.2,133.7,267.8,133.8z"/>
				<path d="M302.9,167c-0.5,0-1.1-0.1-1.6-0.4c-2.9-1.3-4.8-3.1-5.7-5.6c-1.6-4.3-2.4-10.9-2.4-20.1c0-10.4,1.4-23.2,4.2-38.3
					c0.1-0.9,0.2-1.6,0.2-2.1c0-0.6-0.3-0.9-0.8-0.9c-1.1,0-2.3,0.3-3.7,0.9c-1.8,0.7-4.2,1.1-7.3,1.1c-1.3,0-2.6-1.2-4.1-3.6
					c-0.6-1-0.9-1.9-0.9-2.8c0-1.7,1.3-2.7,4-3l12.9-1.7c1.5-0.2,2.6-1.2,3.1-3.1l6.8-23.8c0.7-2.6,2-3.9,3.9-3.9
					c0.6,0,1.3,0.1,2.1,0.4c2.6,1,3.9,2.5,3.9,4.4c0,0.7-0.2,1.5-0.5,2.4c-1.3,3.4-2.9,8.2-4.9,14.5c-1.2,3.7-1.8,5.8-1.8,6.3
					c0.1,1.1,1,1.7,2.8,1.7l5.5-0.1c1.3,0,2.7,0.1,4.4,0.3c1.7,0.2,3.6,1,5.8,2.4s3.3,2.9,3.4,4.5c0,0.7-0.2,1.4-0.5,2.1
					c-0.5,1-1.2,1.5-2,1.5c-0.8,0-1.7-0.3-2.7-0.8c-1.7-0.9-4.6-1.3-8.5-1.3c-6.7,0-10.3,0.5-10.8,1.6c-0.3,0.5-0.5,1.2-0.7,2
					c-3.1,13.8-4.6,27.9-4.6,42.3c0,5.2,0.3,9.4,0.9,12.8c0.4,2.2,1.3,4.4,2.8,6.5c0.3,0.5,0.5,0.9,0.5,1.2c0,0.4-0.2,0.8-0.5,1.3
					C305.4,166.5,304.3,167,302.9,167z"/>
				<path d="M322.7,167c-0.5,0-1.1-0.1-1.6-0.4c-2.9-1.3-4.8-3.1-5.7-5.6c-1.6-4.3-2.4-10.9-2.4-20.1c0-10.4,1.4-23.2,4.2-38.3
					c0.1-0.9,0.2-1.6,0.2-2.1c0-0.6-0.3-0.9-0.8-0.9c-1.1,0-2.3,0.3-3.7,0.9c-1.8,0.7-4.2,1.1-7.3,1.1c-1.3,0-2.6-1.2-4.1-3.6
					c-0.6-1-0.9-1.9-0.9-2.8c0-1.7,1.3-2.7,4-3l12.9-1.7c1.5-0.2,2.6-1.2,3.1-3.1l6.8-23.8c0.7-2.6,2-3.9,3.9-3.9
					c0.6,0,1.3,0.1,2.1,0.4c2.6,1,3.9,2.5,3.9,4.4c0,0.7-0.2,1.5-0.5,2.4c-1.3,3.4-2.9,8.2-4.9,14.5c-1.2,3.7-1.8,5.8-1.8,6.3
					c0.1,1.1,1,1.7,2.8,1.7l5.5-0.1c1.3,0,2.7,0.1,4.4,0.3c1.7,0.2,3.6,1,5.8,2.4s3.3,2.9,3.4,4.5c0,0.7-0.2,1.4-0.5,2.1
					c-0.5,1-1.2,1.5-2,1.5s-1.7-0.3-2.7-0.8c-1.7-0.9-4.6-1.3-8.5-1.3c-6.7,0-10.3,0.5-10.8,1.6c-0.3,0.5-0.5,1.2-0.7,2
					c-3.1,13.8-4.6,27.9-4.6,42.3c0,5.2,0.3,9.4,0.9,12.8c0.4,2.2,1.3,4.4,2.8,6.5c0.3,0.5,0.5,0.9,0.5,1.2c0,0.4-0.2,0.8-0.5,1.3
					C325.2,166.5,324.1,167,322.7,167z"/>
				<path d="M334.7,156.8h-0.3c-3.4,0-5.2-2.3-5.5-6.9c-0.1-2.3-0.2-4.5-0.2-6.6c0-8.1,0.8-15.5,2.4-22.4c0.5-1.9,1.7-2.9,3.8-2.9
					c3.6,0,5.4,1.4,5.4,4.3c0,0.8-0.1,1.5-0.2,2.2c-1.7,8.5-2.7,17-3.1,25.8c0,0.7,0.1,1.4,0.2,2c0.2,0.6,0.3,1.2,0.3,1.9
					c0,0.5-0.1,1.1-0.2,1.6C337.3,156.4,336.4,156.7,334.7,156.8z M337.9,116.6l-1.4-0.1c-1.9-0.4-2.9-1.6-3-3.7v-2
					c0-2.4,1.1-6.3,3.2-11.6l0.5-1.4c0.5-1.3,1.5-1.9,3-2c0.7,0,1.3,0.1,2,0.4c2.3,1,3.4,2.2,3.5,3.6c0,1.5-1.7,6.4-5.1,14.8
					C340,115.9,339.1,116.6,337.9,116.6z"/>
				<path d="M376.1,133.6h-12.7v17.6h-7.7v-48.3h22.1c13.2,0,17.5,5.7,17.5,15.1c0,7.4-2.9,13-11.1,15l10.5,18.2h-8.5L376.1,133.6z
					 M377.6,126.3c6.3,0,9.8-1.8,9.8-8.1c0-6.5-3.3-8.2-9.9-8.2h-14.1v16.3H377.6z"/>
				<path d="M402.6,135v-20.3h7.6v20.5c0,5.5,0.1,9.6,8.9,9.6s8.9-4.2,8.9-9.8v-20.4h7.4v20.2c0,11.4-2.3,16.9-16.3,16.9
					S402.6,146.3,402.6,135z"/>
				<path d="M444.6,141.1v-40.5h7.5v39.6c0,3.2,0.5,4.2,3.9,4.2c0.1,0,1.2,0,1.4,0v6.6c-0.7,0.1-2.3,0.1-4,0.1
					C447.1,151.2,444.6,148.7,444.6,141.1z"/>
				<path d="M461.3,132.8c0-10.4,3.3-19,18.1-19c15.4,0,15.9,10.7,15.6,22.2h-26.4c0.5,5.7,2.7,9.3,10.9,9.3c5.8,0,8.7-1.5,11.5-3.5
					l4,5.3c-4.2,3.2-8.5,4.8-15.5,4.8C464.3,151.9,461.3,143.3,461.3,132.8z M468.7,129.5h19.2c-0.3-5.2-0.8-8.9-8.7-8.9
					C471.7,120.5,469.3,124,468.7,129.5z"/>
				<path d="M499.1,147.4l3.9-5.9c4,2.6,8.9,3.7,12.8,3.7c5.9,0,8.1-0.8,8.1-4.5c0-3-2-3.6-8-4.6c-8.7-1.4-14.8-2.7-14.8-11.5
					c0-6.9,4-10.8,14.8-10.8c5.7,0,10.8,1.2,14.3,3.3l-3.6,6.3c-2.7-1.4-6.5-2.5-10.6-2.5c-6,0-7.5,1.4-7.5,3.8c0,2.9,2,3.6,7.5,4.6
					c9.1,1.5,15.2,2.6,15.2,11.1c0,8.3-4.6,11.5-15.9,11.5C509.9,151.8,504.1,150.7,499.1,147.4z"/>
				<path d="M535.4,122.6c0-10.4,5.8-18.1,17.4-18.1c11.7,0,17.5,7.7,17.5,18.1c0,10.4-5.8,18.1-17.5,18.1
					C541.1,140.6,535.4,132.9,535.4,122.6z M568.1,122.6c0-9.1-4.6-15.8-15.2-15.8c-10.7,0-15.2,6.7-15.2,15.8s4.5,15.8,15.2,15.8
					C563.5,138.4,568.1,131.6,568.1,122.6z M553.8,125.4h-6v8.4h-3.5v-22.3h10.1c6.4,0,8,2.5,8,6.8c0,3.4-1.1,5.9-5.1,6.7l5,8.7
					h-3.8L553.8,125.4z M554.4,122.2c3.2,0,4.5-0.8,4.5-3.7c0-2.9-1.3-3.8-4.6-3.8h-6.5v7.5H554.4z"/>
			</g>
		</g>
	</g>
</g>
</svg>
